<?xml version="1.0" encoding="UTF-8"?>
<svg version="1.1" xmlns="http://www.w3.org/2000/svg" width="256" height="256">
<path d="M0 0 C0.33 0 0.66 0 1 0 C0.43943935 7.96517925 -1.05838753 15.59061109 -2.78466797 23.37695312 C-3.07286704 24.6961935 -3.36056706 26.01554298 -3.64781189 27.33499146 C-4.42645694 30.9048828 -5.21205745 34.47321076 -5.99894857 38.04129219 C-6.83468745 41.83665325 -7.66392506 45.63343474 -8.493927 49.43005371 C-10.07703154 56.66684935 -11.6659343 63.9023591 -13.25691903 71.1374259 C-15.02364291 79.17300145 -16.78389183 87.20999018 -18.54355574 95.24711418 C-22.53392481 113.47155163 -26.5354703 131.693526 -30.54149437 149.91452789 C-30.99442666 151.97465014 -31.44732799 154.03477918 -31.90022278 156.09490967 C-35.26430435 171.39715924 -38.63057218 186.69892673 -42 202 C-45.66412403 201.16499892 -48.56433525 199.76228387 -51.8828125 197.97265625 C-53.04047119 197.35068359 -54.19812988 196.72871094 -55.39086914 196.08789062 C-56.63569036 195.41296499 -57.88039816 194.7378301 -59.125 194.0625 C-60.4079921 193.37020239 -61.69111477 192.6781467 -62.97436523 191.98632812 C-71.84947867 187.19474974 -80.68594774 182.33626177 -89.48486328 177.40625 C-94.22628897 174.75524903 -98.97726806 172.12140928 -103.72662354 169.48464966 C-106.62665202 167.87443766 -109.52618974 166.26334245 -112.42578125 164.65234375 C-113.53518066 164.03601074 -114.64458008 163.41967773 -115.78759766 162.78466797 C-122.85839844 158.85644531 -129.92919922 154.92822266 -137 151 C-135.64563311 147.99789561 -134.11315928 145.83584825 -131.83984375 143.4609375 C-131.2156958 142.80327393 -130.59154785 142.14561035 -129.94848633 141.46801758 C-129.28486084 140.77732178 -128.62123535 140.08662598 -127.9375 139.375 C-126.56436336 137.92908858 -125.19196427 136.48247636 -123.8203125 135.03515625 C-123.15805664 134.33793457 -122.49580078 133.64071289 -121.81347656 132.92236328 C-118.89362469 129.8271945 -116.06405022 126.65429265 -113.23046875 123.48046875 C-110.0478222 119.94109824 -106.81357073 116.45030143 -103.58129883 112.95629883 C-100.21116033 109.31300679 -96.8509348 105.66095985 -93.5 102 C-89.67671073 97.82400369 -85.84234165 93.65847196 -82 89.5 C-76.77184474 83.84114233 -71.56155894 78.16617151 -66.35888672 72.48388672 C-64.07357504 69.98835593 -61.7867042 67.49425473 -59.5 65 C-58.58332596 64.00000675 -57.6666593 63.00000676 -56.75 62 C-29.25 32 -29.25 32 -27.87475586 30.49975586 C-26.95887351 29.50059669 -26.0430206 28.50141053 -25.12719727 27.50219727 C-22.82377231 24.98910945 -20.51982398 22.47650522 -18.21484375 19.96484375 C-17.75513184 19.4637207 -17.29541992 18.96259766 -16.82177734 18.44628906 C-15.90703682 17.44927029 -14.99200301 16.4525205 -14.07666016 15.45605469 C-11.74544077 12.91550475 -9.42534573 10.36583302 -7.12109375 7.80078125 C-6.65968994 7.28845947 -6.19828613 6.7761377 -5.72290039 6.24829102 C-4.44596608 4.82888405 -3.17211001 3.4067096 -1.8984375 1.984375 C-1.27195313 1.32953125 -0.64546875 0.6746875 0 0 Z " fill="#C7A921" transform="translate(255,27)"/>
<path d="M0 0 C-7.008683 5.96128045 -14.04638447 11.87617019 -21.18359375 17.68359375 C-24.33785192 20.27787266 -27.4520298 22.91606265 -30.5625 25.5625 C-35.11284316 29.43241802 -39.72832835 33.19959897 -44.41015625 36.91015625 C-48.03130969 39.83220315 -51.56954569 42.84821486 -55.11328125 45.86328125 C-59.42465566 49.52693744 -63.79501873 53.11268628 -68.18359375 56.68359375 C-71.33785192 59.27787266 -74.4520298 61.91606265 -77.5625 64.5625 C-82.11284316 68.43241802 -86.72832835 72.19959897 -91.41015625 75.91015625 C-95.03130969 78.83220315 -98.56954569 81.84821486 -102.11328125 84.86328125 C-106.42962004 88.531156 -110.8047916 92.12126321 -115.19921875 95.6953125 C-118.26776097 98.2203333 -121.29029824 100.79496117 -124.3125 103.375 C-129.37962979 107.69312178 -134.54853161 111.85712428 -139.82373047 115.91845703 C-142.74073661 118.17491664 -145.56999014 120.47360658 -148.3046875 122.94921875 C-148.83312256 123.419646 -149.36155762 123.89007324 -149.90600586 124.37475586 C-151.34535997 125.66726051 -152.76521107 126.98139064 -154.18359375 128.296875 C-157.22442743 130.13571478 -158.35195465 130.16737567 -161.75090027 129.57119751 C-166.91432509 128.25985708 -171.84724883 126.21942545 -176.80859375 124.30078125 C-178.06038599 123.82269069 -179.31243076 123.34526086 -180.56471252 122.86845398 C-183.85715392 121.61291211 -187.14623508 120.34879475 -190.43463135 119.08270264 C-193.72732862 117.81649673 -197.02290591 116.55783935 -200.31835938 115.29882812 C-204.12626495 113.84353699 -207.93392005 112.38761175 -211.74008179 110.92776489 C-220.4780886 107.57686657 -229.22806533 104.26108138 -238 101 C-238 100.01 -238 99.02 -238 98 C-201.54207803 82.48093243 -165.0572481 67.02718795 -128.49691772 51.75076294 C-115.6449884 46.37946058 -102.81453842 40.95987086 -90 35.5 C-74.03548897 28.69827551 -58.04525705 21.95976788 -42.02929688 15.2800293 C-40.26952988 14.54606448 -38.50976423 13.81209645 -36.75 13.078125 C-35.48198547 12.5493853 -35.48198547 12.5493853 -34.18835449 12.00996399 C-29.13590765 9.90047266 -24.09496543 7.76604449 -19.0625 5.609375 C-17.92876953 5.12654053 -16.79503906 4.64370605 -15.62695312 4.14624023 C-13.61709514 3.28897492 -11.61029214 2.42449185 -9.60742188 1.55102539 C-8.75728516 1.19000732 -7.90714844 0.82898926 -7.03125 0.45703125 C-6.31517578 0.14741455 -5.59910156 -0.16220215 -4.86132812 -0.48120117 C-3 -1 -3 -1 0 0 Z " fill="#C7A821" transform="translate(239,29)"/>
<path d="M0 0 C0 3 0 3 -1.72265625 4.98046875 C-2.49480469 5.70878906 -3.26695312 6.43710937 -4.0625 7.1875 C-6.88779478 9.92095083 -9.6354719 12.63454656 -12.1875 15.625 C-15.63907102 19.64781005 -19.24979498 23.50945254 -22.875 27.375 C-26.78882346 31.54994942 -30.68810959 35.73125382 -34.5 40 C-38.2734412 44.22400134 -42.12833772 48.36633784 -46 52.5 C-50.63320981 57.44740894 -55.21649169 62.43103885 -59.734375 67.484375 C-62.93075259 71.03345633 -66.17506062 74.53738758 -69.41845703 78.04345703 C-72.78869508 81.68681345 -76.14901551 85.33892983 -79.5 89 C-82.83522586 92.64340771 -86.17744326 96.2801008 -89.53222656 99.90551758 C-90.55093775 101.00857961 -91.56722578 102.11388452 -92.58105469 103.22143555 C-94.91224848 105.76534888 -97.26016542 108.26054193 -99.69921875 110.703125 C-106.09747229 117.24835221 -109.9952374 124.11735187 -113.76025391 132.328125 C-115.26863683 135.57896051 -116.82510653 138.80577319 -118.38671875 142.03125 C-118.98787747 143.27343599 -119.58903305 144.5156235 -120.19018555 145.7578125 C-120.48919769 146.3755957 -120.78820984 146.99337891 -121.09628296 147.62988281 C-123.4084764 152.41464674 -125.70286612 157.20799362 -128 162 C-128.66 162 -129.32 162 -130 162 C-130.72288807 154.71548129 -131.30257089 147.42913028 -131.78833008 140.125 C-131.96946424 137.64751049 -132.18213445 135.17210238 -132.42797852 132.70019531 C-134.38143496 112.73868991 -134.38143496 112.73868991 -130.43029785 106.53567505 C-126.55096998 102.3040983 -122.06291307 99.25244405 -117.14776611 96.34059143 C-113.85193057 94.28339868 -111.01858982 91.76518157 -108.125 89.1875 C-103.40772508 85.15533824 -98.61502881 81.22018262 -93.80078125 77.3046875 C-90.73224213 74.77966925 -87.70960188 72.20515231 -84.6875 69.625 C-80.25148397 65.84207508 -75.73399357 62.19467263 -71.125 58.625 C-65.37972845 54.16948329 -59.86904559 49.48856595 -54.39941406 44.70019531 C-49.91885609 40.78058356 -45.3579661 36.98011879 -40.73046875 33.234375 C-37.68032957 30.73840989 -34.68428186 28.18445245 -31.6875 25.625 C-26.59758902 21.28825007 -21.39636401 17.11786951 -16.12133789 13.0090332 C-10.67262073 8.7624311 -5.32488009 4.4011764 0 0 Z " fill="#C7A921" transform="translate(217,56)"/>
<path d="M0 0 C6.16356805 1.6658292 11.48259656 4.87805286 17 8 C15.67789709 11.0118602 14.36610497 12.80540131 11.796875 14.84765625 C11.15250488 15.36561768 10.50813477 15.8835791 9.84423828 16.41723633 C9.15313965 16.96017334 8.46204102 17.50311035 7.75 18.0625 C7.04214355 18.62670654 6.33428711 19.19091309 5.60498047 19.7722168 C4.13669873 20.94059209 2.66579887 22.10568432 1.19238281 23.26757812 C-0.91489804 24.9327524 -3.00969105 26.61240542 -5.1015625 28.296875 C-6.35894467 29.30262157 -7.61673751 30.307855 -8.875 31.3125 C-9.75720215 32.02321655 -9.75720215 32.02321655 -10.65722656 32.74829102 C-14.77016606 36 -14.77016606 36 -17 36 C-15.60027234 31.49699352 -13.83072048 27.34841705 -11.77734375 23.10546875 C-11.47180069 22.47264481 -11.16625763 21.83982086 -10.85145569 21.18782043 C-10.21024257 19.86175871 -9.56726751 18.53654763 -8.92260742 17.2121582 C-7.93290639 15.17805891 -6.94945226 13.14102648 -5.96679688 11.10351562 C-1.14338865 1.14338865 -1.14338865 1.14338865 0 0 Z " fill="#C7A922" transform="translate(113,184)"/>
</svg>
